# xmcd
# 
# Track frame offsets:
#     150
#     21317
#     43635
#     65700
#     89325
#     112450
#     136775
#     162387
#     181607
#     204560
#     227780
# 
# Disc length: 3302
# 
# Revision: 2
# Processed by: cddbd v1.5.2PL0 Copyright (c) Steve Scherf et al.
# Submitted via: BonkEnc v1.0.15
# 
DISCID=9a0ce40b
DTITLE=米倉利紀 - yone’s BODY and SOUL II Disc 1
DYEAR=2001
DGENRE=
TTITLE0=good time(day version)
TTITLE1=Love in the sky(single version)
TTITLE2=HOTEL CLASSIQUE
TTITLE3=Break Out!
TTITLE4=Yes,I do.
TTITLE5=たとえば墜ちてゆくなら
TTITLE6=月と太陽
TTITLE7=from“O”
TTITLE8=未完のアンドロイド
TTITLE9=Emergency
TTITLE10=恋のはじまり…
EXTD=
EXTT0=
EXTT1=
EXTT2=
EXTT3=
EXTT4=
EXTT5=
EXTT6=
EXTT7=
EXTT8=
EXTT9=
EXTT10=
PLAYORDER=
